<svg version="1.1" preserveAspectRatio="none" xmlns="http://www.w3.org/2000/svg" width="500" height="500" viewBox="0 0 500 500"><rect width="100%" height="100%" fill="#2089EF" fill-opacity="1"/><svg viewBox="115.0281 189.8743 345.7208 238.2902" width="333" height="229.52230991019343" x="83.5px" y="135.2388px" xmlns="http://www.w3.org/2000/svg" xmlns:xlink="http://www.w3.org/1999/xlink" preserveAspectRatio="none"><defs></defs><style>.companyName {fill:#D9F18A;fill-opacity:1;}.icon1 {fill:#FFA2E8;fill-opacity:1;}.icon2 {fill:#FFDEAC;fill-opacity:1;}.icon3 {fill:#89EFCA;fill-opacity:1;}.icon3-str {stroke:#89EFCA;stroke-opacity:1;}</style><g opacity="1" transform="rotate(0 218.7444 189.8743)">
<svg width="138.2883" height="138.2902" x="218.7444" y="189.8743" version="1.1" preserveAspectRatio="none" viewBox="25.000776290893555 24.999773025512695 149.99842834472656 150.00045776367188">
  <g transform="matrix(1 0 0 1 0 0)"><g><path d="M100 112.383c-6.846 0-12.282-5.436-12.282-12.282S93.154 87.819 100 87.819s12.282 5.436 12.282 12.282c0 6.644-5.638 12.282-12.282 12.282zm0-18.524c-3.423 0-6.242 2.819-6.242 6.242s2.819 6.242 6.242 6.242 6.242-2.819 6.242-6.242c0-3.624-2.819-6.242-6.242-6.242z" data-color="1" class="icon1"></path><path d="M100 120.537c-11.275 0-20.537-9.262-20.638-20.537 0-11.275 9.06-20.436 20.537-20.436s20.537 9.262 20.638 20.537c0 11.275-9.262 20.335-20.537 20.436zm0-38.96c-10.268 0-18.523 8.255-18.523 18.624 0 10.268 8.255 18.523 18.523 18.523s18.523-8.255 18.523-18.624c-.201-10.368-8.456-18.623-18.523-18.523z" data-color="2" class="icon2"></path><path d="M100.101 175c-41.376.101-75-33.624-75.1-74.798S58.524 25.101 99.899 25c41.376-.101 75 33.624 75.1 75s-33.724 74.899-74.898 75zm-.202-143.96c-38.154.101-68.859 31.007-68.859 69.161s30.906 68.96 69.06 68.96c38.154-.101 68.657-31.208 68.657-69.161-.099-37.953-30.905-68.96-68.858-68.96z" data-color="1" class="icon1"></path></g></g>
</svg>
</g><g opacity="1" transform="rotate(0 115.0281 368.1645)">
<svg width="345.7208" height="60" x="115.0281" y="368.1645" version="1.1" preserveAspectRatio="none" viewBox="2 -33.16 192.67999999999998 33.44">
  <g transform="matrix(1 0 0 1 0 0)" class="companyName"><path id="id-D6z1nYkh8" d="M25.20-28.32L36.04-28.32L36.04 0L27.20 0L27.20-14.12L22.84 0L15.24 0L10.88-14.12L10.88 0L2 0L2-28.32L12.88-28.32L19.12-11.32L25.20-28.32Z M39.40-28.72Q39.40-30.64 40.80-31.90Q42.20-33.16 44.52-33.16L44.52-33.16Q46.80-33.16 48.20-31.90Q49.60-30.64 49.60-28.72L49.60-28.72Q49.60-26.84 48.20-25.60Q46.80-24.36 44.52-24.36L44.52-24.36Q42.20-24.36 40.80-25.60Q39.40-26.84 39.40-28.72L39.40-28.72ZM40.04-22.56L48.92-22.56L48.92 0L40.04 0L40.04-22.56Z M77.64 0L67.72 0L63.92-5.08L61.08 0L51.32 0L58.88-11.88L50.92-22.56L60.84-22.56L64.64-17.44L67.52-22.56L77.28-22.56L69.48-10.96L77.64 0Z M77.64-28.32L87.08-28.32L92.92-8.84L98.72-28.32L108.16-28.32L98.64 0L87.16 0L77.64-28.32Z M120.88-22.84Q124.28-22.84 127-21.44Q129.72-20.04 131.26-17.42Q132.80-14.80 132.80-11.28L132.80-11.28Q132.80-7.76 131.26-5.14Q129.72-2.52 127-1.12Q124.28 0.28 120.88 0.28L120.88 0.28Q117.48 0.28 114.76-1.12Q112.04-2.52 110.50-5.14Q108.96-7.76 108.96-11.28L108.96-11.28Q108.96-14.80 110.50-17.42Q112.04-20.04 114.76-21.44Q117.48-22.84 120.88-22.84L120.88-22.84ZM120.88-15.16Q119.64-15.16 118.80-14.18Q117.96-13.20 117.96-11.28L117.96-11.28Q117.96-9.36 118.78-8.38Q119.60-7.40 120.88-7.40L120.88-7.40Q122.12-7.40 122.96-8.38Q123.80-9.36 123.80-11.28L123.80-11.28Q123.80-13.20 122.96-14.18Q122.12-15.16 120.88-15.16L120.88-15.16Z M134.96-28.72Q134.96-30.64 136.36-31.90Q137.76-33.16 140.08-33.16L140.08-33.16Q142.36-33.16 143.76-31.90Q145.16-30.64 145.16-28.72L145.16-28.72Q145.16-26.84 143.76-25.60Q142.36-24.36 140.08-24.36L140.08-24.36Q137.76-24.36 136.36-25.60Q134.96-26.84 134.96-28.72L134.96-28.72ZM135.60-22.56L144.48-22.56L144.48 0L135.60 0L135.60-22.56Z M158.80-22.84Q163.20-22.84 166.22-20.36Q169.24-17.88 170.04-13.48L170.04-13.48L160.64-13.48Q160.12-15.24 158.60-15.24L158.60-15.24Q157.52-15.24 156.90-14.24Q156.28-13.24 156.28-11.28L156.28-11.28Q156.28-9.32 156.90-8.32Q157.52-7.32 158.60-7.32L158.60-7.32Q160.12-7.32 160.64-9.08L160.64-9.08L170.04-9.08Q169.24-4.68 166.22-2.20Q163.20 0.28 158.80 0.28L158.80 0.28Q155.44 0.28 152.82-1.12Q150.20-2.52 148.74-5.14Q147.28-7.76 147.28-11.28L147.28-11.28Q147.28-14.80 148.74-17.42Q150.20-20.04 152.82-21.44Q155.44-22.84 158.80-22.84L158.80-22.84Z M194.68-11.48Q194.68-10.64 194.48-9.72L194.48-9.72L180.28-9.72Q180.40-8.04 181.04-7.42Q181.68-6.80 182.72-6.80L182.72-6.80Q184.16-6.80 184.80-8.12L184.80-8.12L194.20-8.12Q193.72-5.72 192.18-3.82Q190.64-1.92 188.30-0.82Q185.96 0.28 183.16 0.28L183.16 0.28Q179.80 0.28 177.18-1.12Q174.56-2.52 173.10-5.14Q171.64-7.76 171.64-11.28L171.64-11.28Q171.64-14.80 173.10-17.42Q174.56-20.04 177.18-21.44Q179.80-22.84 183.16-22.84L183.16-22.84Q186.52-22.84 189.14-21.46Q191.76-20.08 193.22-17.52Q194.68-14.96 194.68-11.48L194.68-11.48ZM180.36-13.36L185.68-13.36Q185.68-14.64 184.96-15.26Q184.24-15.88 183.16-15.88L183.16-15.88Q180.72-15.88 180.36-13.36L180.36-13.36Z"/></g>
</svg>
</g></svg></svg>