<svg version="1.1" preserveAspectRatio="none" xmlns="http://www.w3.org/2000/svg" width="500" height="500" viewBox="0 0 500 500"><rect width="100%" height="100%" fill="#FFFFFF" fill-opacity="1"/><svg viewBox="1132.2802 947.3178 521.2859 120" width="333" height="76.65659094174617" x="83.5px" y="211.6717px" xmlns="http://www.w3.org/2000/svg" xmlns:xlink="http://www.w3.org/1999/xlink" preserveAspectRatio="none"><defs></defs><style>.background {fill:#FFFFFF;fill-opacity:1;}.icon1 {fill:#0000FF;fill-opacity:1;}.icon1-str {stroke:#0000FF;stroke-opacity:1;}.icon2 {fill:#A9FF94;fill-opacity:1;}.icon3 {fill:#7AE061;fill-opacity:0.95;}.icon3-str {stroke:#7AE061;stroke-opacity:0.95;}.icon4 {fill:#64CC4B;fill-opacity:1;}.icon5 {fill:#9B9BFF;fill-opacity:1;}.icon6 {fill:#E6FFDF;fill-opacity:0.95;}.icon7 {fill:#C6C6FF;fill-opacity:1;}.icon8 {fill:#EFAFAA;fill-opacity:1;}</style><g opacity="1" transform="rotate(0 1248.28 947.3178)">
<svg width="405.2861" height="120" x="1248.28" y="947.3178" version="1.1" preserveAspectRatio="none" viewBox="0 0 405.2861 120">
  <defs><rect x="0" y="0" width="405.2861" height="120" rx="0px" ry="0px" id="id-B7crM0kCi1710337723440"></rect></defs><use class="icon1 icon3-str" style="stroke-width:0;" xlink:href="#id-B7crM0kCi1710337723440"></use>
</svg>
</g><g opacity="1" transform="rotate(0 1278.28 977.3178)">
<svg width="345.2861" height="60" x="1278.28" y="977.3178" version="1.1" preserveAspectRatio="none" viewBox="3.32 -31.48 183 31.8">
  <g transform="matrix(1 0 0 1 0 0)" class="background"><path id="id-D6z1nYkh8" d="M34.88 0L28.80 0L28.76-16.80L20.52-2.96L17.60-2.96L9.40-16.44L9.40 0L3.32 0L3.32-28L8.68-28L19.16-10.60L29.48-28L34.80-28L34.88 0Z M41.08 0L41.08-21.52L47.32-21.52L47.32 0L41.08 0ZM44.20-24.52Q42.48-24.52 41.40-25.52Q40.32-26.52 40.32-28L40.32-28Q40.32-29.48 41.40-30.48Q42.48-31.48 44.20-31.48L44.20-31.48Q45.92-31.48 47-30.52Q48.08-29.56 48.08-28.12L48.08-28.12Q48.08-26.56 47-25.54Q45.92-24.52 44.20-24.52L44.20-24.52Z M73.88 0L66.80 0L62.08-6.60L57.20 0L50.40 0L58.68-10.84L50.68-21.52L57.68-21.52L62.24-15.24L66.92-21.52L73.56-21.52L65.56-11L73.88 0Z M96.92-28L103.36-28L91.24 0L84.84 0L72.76-28L79.76-28L88.28-8L96.92-28Z M113.88 0.32Q110.48 0.32 107.78-1.10Q105.08-2.52 103.56-5.04Q102.04-7.56 102.04-10.76L102.04-10.76Q102.04-13.96 103.56-16.48Q105.08-19 107.78-20.42Q110.48-21.84 113.88-21.84L113.88-21.84Q117.28-21.84 119.96-20.42Q122.64-19 124.16-16.48Q125.68-13.96 125.68-10.76L125.68-10.76Q125.68-7.56 124.16-5.04Q122.64-2.52 119.96-1.10Q117.28 0.32 113.88 0.32L113.88 0.32ZM113.88-4.80Q116.28-4.80 117.82-6.42Q119.36-8.04 119.36-10.76L119.36-10.76Q119.36-13.48 117.82-15.10Q116.28-16.72 113.88-16.72L113.88-16.72Q111.48-16.72 109.92-15.10Q108.36-13.48 108.36-10.76L108.36-10.76Q108.36-8.04 109.92-6.42Q111.48-4.80 113.88-4.80L113.88-4.80Z M129.84 0L129.84-21.52L136.08-21.52L136.08 0L129.84 0ZM132.96-24.52Q131.24-24.52 130.16-25.52Q129.08-26.52 129.08-28L129.08-28Q129.08-29.48 130.16-30.48Q131.24-31.48 132.96-31.48L132.96-31.48Q134.68-31.48 135.76-30.52Q136.84-29.56 136.84-28.12L136.84-28.12Q136.84-26.56 135.76-25.54Q134.68-24.52 132.96-24.52L132.96-24.52Z M152.28 0.32Q148.84 0.32 146.10-1.10Q143.36-2.52 141.82-5.04Q140.28-7.56 140.28-10.76L140.28-10.76Q140.28-13.96 141.82-16.48Q143.36-19 146.10-20.42Q148.84-21.84 152.28-21.84L152.28-21.84Q155.68-21.84 158.22-20.42Q160.76-19 161.92-16.36L161.92-16.36L157.08-13.76Q155.40-16.72 152.24-16.72L152.24-16.72Q149.80-16.72 148.20-15.12Q146.60-13.52 146.60-10.76L146.60-10.76Q146.60-8 148.20-6.40Q149.80-4.80 152.24-4.80L152.24-4.80Q155.44-4.80 157.08-7.76L157.08-7.76L161.92-5.12Q160.76-2.56 158.22-1.12Q155.68 0.32 152.28 0.32L152.28 0.32Z M186.32-10.68Q186.32-10.56 186.20-9L186.20-9L169.92-9Q170.36-7 172-5.84Q173.64-4.68 176.08-4.68L176.08-4.68Q177.76-4.68 179.06-5.18Q180.36-5.68 181.48-6.76L181.48-6.76L184.80-3.16Q181.76 0.32 175.92 0.32L175.92 0.32Q172.28 0.32 169.48-1.10Q166.68-2.52 165.16-5.04Q163.64-7.56 163.64-10.76L163.64-10.76Q163.64-13.92 165.14-16.46Q166.64-19 169.26-20.42Q171.88-21.84 175.12-21.84L175.12-21.84Q178.28-21.84 180.84-20.48Q183.40-19.12 184.86-16.58Q186.32-14.04 186.32-10.68L186.32-10.68ZM175.16-17.12Q173.04-17.12 171.60-15.92Q170.16-14.72 169.84-12.64L169.84-12.64L180.44-12.64Q180.12-14.68 178.68-15.90Q177.24-17.12 175.16-17.12L175.16-17.12Z"/></g>
</svg>
</g><g opacity="1" transform="rotate(0 1132.2802 947.3178)">
<svg width="119.9998" height="120" x="1132.2802" y="947.3178" version="1.1" preserveAspectRatio="none" viewBox="0 0 119.9998 120">
  <defs><rect x="2.399996" y="2.399996" width="115.19980799999999" height="115.200008" rx="0px" ry="0px" id="id-tBXipXk0b1710337723440"></rect></defs><use class="background icon1-str" style="stroke-width:4.799992;" xlink:href="#id-tBXipXk0b1710337723440"></use>
</svg>
</g><g opacity="1" transform="rotate(0 1152.2802 976.3573)">
<svg width="79.9998" height="61.9211" x="1152.2802" y="976.3573" version="1.1" preserveAspectRatio="none" viewBox="4.199999809265137 14.600000381469727 91.60000610351562 70.9000015258789">
  <g transform="matrix(1 0 0 1 0 0)" class="icon1"><g><path d="M83,14.6H17c-7,0-12.8,5.7-12.8,12.8v45.3c0,7,5.7,12.8,12.8,12.8h66c7,0,12.8-5.7,12.8-12.8V27.4   C95.8,20.3,90,14.6,83,14.6z M94.3,72.6c0,6.2-5,11.3-11.3,11.3H17c-6.2,0-11.3-5-11.3-11.3V27.4c0-6.2,5-11.3,11.3-11.3h66   c6.2,0,11.3,5,11.3,11.3V72.6z"></path><path d="M74.4,22.7l0-1.9c0-1-0.8-1.8-1.8-1.8h-0.3c-1,0-1.8,0.8-1.8,1.8v1.9c-1.3,0.7-2.1,2.1-2.1,3.6s0.8,2.9,2.1,3.6v27.6   l-1.6,5.8c-0.4,0.2-0.8,0.5-0.9,1l-2.7,7.7c-0.3,0.7-0.3,1.5,0,2.2c0.3,0.6,0.8,1.1,1.5,1.2l1.6,0.4c0.2,0.1,0.4,0.1,0.6,0.1   c0.5,0,0.9-0.1,1.3-0.4c0.6-0.4,1.1-1.1,1.2-1.9l1.6-8.1l0,0c0.1-0.4-0.1-0.9-0.3-1.3l1.7-6.2l0-28.2c1.3-0.7,2.1-2.1,2.1-3.6   C76.5,24.8,75.7,23.4,74.4,22.7z M69.9,26.3c0-0.6,0.2-1.2,0.6-1.7v3.3C70.1,27.5,69.9,26.9,69.9,26.3z M70,73.4   c0,0.4-0.2,0.7-0.5,0.9c-0.2,0.1-0.4,0.2-0.7,0.1l-1.6-0.4c-0.3-0.1-0.5-0.3-0.5-0.5c-0.1-0.3-0.1-0.7,0-1l2.7-7.7   c0-0.1,0.2-0.2,0.3-0.2c0.1,0,0.2,0,0.4,0l1,0.3c0.1,0,0.2,0.1,0.3,0.2c0.1,0.1,0.2,0.2,0.2,0.3L70,73.4z M72.9,57.7l-1.5,5.6   l-0.9-0.2l1.5-5.4l0-27.3l0,0v-8.4l0,0l0-1.2c0-0.2,0.1-0.3,0.3-0.3h0.3c0.2,0,0.3,0.1,0.3,0.3v1.2v8.4V57.7z M74.4,27.9v-3.3   c0.4,0.5,0.6,1,0.6,1.7C75,26.9,74.8,27.5,74.4,27.9z"></path><path d="M86.8,21.2c-2.8,0-5.1,2.3-5.1,5.1s2.3,5.1,5.1,5.1s5.1-2.3,5.1-5.1S89.5,21.2,86.8,21.2z M86.8,29.8c-2,0-3.6-1.6-3.6-3.6   c0-2,1.6-3.6,3.6-3.6s3.6,1.6,3.6,3.6C90.3,28.2,88.7,29.8,86.8,29.8z"></path><path d="M37.5,19.6c-15.6,0-28.3,12.7-28.3,28.3s12.7,28.3,28.3,28.3s28.3-12.7,28.3-28.3S53.1,19.6,37.5,19.6z M37.5,74.6   c-14.8,0-26.8-12-26.8-26.8s12-26.8,26.8-26.8s26.8,12,26.8,26.8S52.3,74.6,37.5,74.6z"></path><path d="M37.5,37.4c-5.8,0-10.5,4.7-10.5,10.5s4.7,10.5,10.5,10.5c1,0,2-0.1,3-0.4c3.4-1,6-3.6,7-7c0.3-1,0.4-2,0.4-3   C48,42.1,43.3,37.4,37.5,37.4z M46.1,50.4c-0.9,2.9-3.1,5.1-6,6c-0.8,0.3-1.7,0.4-2.6,0.4c-4.9,0-9-4-9-9s4-9,9-9c4.9,0,9,4,9,9   C46.5,48.7,46.4,49.6,46.1,50.4z"></path><path d="M38.6,45.6l-0.1,0.1c-0.3-0.1-0.6-0.2-1-0.2c-1.3,0-2.4,1.1-2.4,2.4c0,0.6,0.2,1.2,0.7,1.7c0.4,0.4,1,0.7,1.7,0.7   c1.3,0,2.4-1.1,2.4-2.4c0-0.6-0.2-1.2-0.7-1.7L38.6,45.6z M37.5,48.7c-0.2,0-0.5-0.1-0.6-0.3c-0.2-0.2-0.3-0.4-0.3-0.6   c0-0.5,0.4-0.9,0.9-0.9c0.2,0,0.4,0.1,0.6,0.2l0.1,0.1c0.1,0.2,0.2,0.4,0.2,0.6C38.4,48.3,38,48.7,37.5,48.7z"></path><path d="M91.1,57.9H79c-0.4,0-0.8,0.3-0.8,0.8s0.3,0.8,0.8,0.8h12.1c0.4,0,0.8-0.3,0.8-0.8S91.5,57.9,91.1,57.9z"></path><path d="M91.1,61.7H79c-0.4,0-0.8,0.3-0.8,0.8s0.3,0.8,0.8,0.8h12.1c0.4,0,0.8-0.3,0.8-0.8S91.5,61.7,91.1,61.7z"></path><path d="M91.1,69.3H79c-0.4,0-0.8,0.3-0.8,0.8s0.3,0.8,0.8,0.8h12.1c0.4,0,0.8-0.3,0.8-0.8S91.5,69.3,91.1,69.3z"></path><path d="M91.1,73.1H79c-0.4,0-0.8,0.3-0.8,0.8s0.3,0.8,0.8,0.8h12.1c0.4,0,0.8-0.3,0.8-0.8S91.5,73.1,91.1,73.1z"></path><path d="M91.1,65.5H79c-0.4,0-0.8,0.3-0.8,0.8S78.6,67,79,67h12.1c0.4,0,0.8-0.3,0.8-0.8S91.5,65.5,91.1,65.5z"></path></g></g>
</svg>
</g></svg></svg>