<svg version="1.1" preserveAspectRatio="none" xmlns="http://www.w3.org/2000/svg" width="500" height="500" viewBox="0 0 500 500"><rect width="100%" height="100%" fill="#FFFFFF" fill-opacity="1"/><svg viewBox="-5.2611 235.3818 507.993 110" width="333" height="72.107292817027" x="83.5px" y="213.9464px" xmlns="http://www.w3.org/2000/svg" xmlns:xlink="http://www.w3.org/1999/xlink" preserveAspectRatio="none"><defs></defs><style>.background {fill:#FFFFFF;fill-opacity:1;}.companyName {fill:#0C0C0C;fill-opacity:1;}.icon3 {fill:#6F5CF3;fill-opacity:1;}.icon3-str {stroke:#6F5CF3;stroke-opacity:1;}.shape {fill:#F55649;fill-opacity:1;}.text-str {stroke:#0C0C0C;stroke-opacity:1;}</style><g opacity="1" transform="rotate(0 107.7388 235.3818)">
<svg width="394.9931" height="110" x="107.7388" y="235.3818" version="1.1" preserveAspectRatio="none" viewBox="0 0 394.9931 110">
  <defs><rect x="0" y="0" width="394.9931" height="110" rx="0px" ry="0px" id="id-B7crM0kCi1710337723456"></rect></defs><use class="companyName text-str" style="stroke-width:0;" xlink:href="#id-B7crM0kCi1710337723456"></use>
</svg>
</g><g opacity="1" transform="rotate(0 137.7388 265.3818)">
<svg width="334.9931" height="50" x="137.7388" y="265.3818" version="1.1" preserveAspectRatio="none" viewBox="4.3555 -32.3242 219.31640000000002 32.734399999999994">
  <g transform="matrix(1 0 0 1 0 0)" class="background"><path id="id-D6z1nYkh8" d="M4.36 0L4.36-30.53L10.55-30.53L21.64-19.39L32.73-30.53L38.93-30.53L38.93 0L32.73 0L32.73-21.95L21.64-11.27L10.55-21.95L10.55 0L4.36 0Z M49.94-26.19L49.94-26.19Q49.08-26.19 48.39-26.44Q47.70-26.68 47.21-27.10Q46.72-27.52 46.46-28.08Q46.19-28.63 46.19-29.26L46.19-29.26Q46.19-29.90 46.46-30.46Q46.72-31.02 47.21-31.43Q47.70-31.84 48.39-32.08Q49.08-32.32 49.94-32.32L49.94-32.32Q50.82-32.32 51.51-32.08Q52.21-31.84 52.70-31.43Q53.18-31.02 53.45-30.46Q53.71-29.90 53.71-29.26L53.71-29.26Q53.71-28.63 53.45-28.08Q53.18-27.52 52.70-27.10Q52.21-26.68 51.51-26.44Q50.82-26.19 49.94-26.19ZM47.05 0L47.05-23.05L52.83-23.05L52.83 0L47.05 0Z M57.03 0L66.21-11.52L56.68-23.07L64.06-23.07L69.84-16.04L75.33-23.07L82.54-23.07L73.57-11.54L83.11 0L75.72 0L69.77-7.21L64.24 0L57.03 0Z M96.82 0L83.44-30.53L90.29-30.53L99.88-7.25L109.47-30.53L116.33-30.53L102.95 0L96.82 0Z M118.81-11.52L118.81-11.52Q118.81-14.00 119.81-16.17Q120.82-18.34 122.69-19.96Q124.55-21.58 127.20-22.52Q129.84-23.46 133.14-23.46L133.14-23.46Q136.45-23.46 139.09-22.52Q141.74-21.58 143.60-19.96Q145.47-18.34 146.47-16.17Q147.48-14.00 147.48-11.52L147.48-11.52Q147.48-9.04 146.47-6.88Q145.47-4.71 143.60-3.09Q141.74-1.46 139.09-0.53Q136.45 0.41 133.14 0.41L133.14 0.41Q129.84 0.41 127.20-0.53Q124.55-1.46 122.69-3.09Q120.82-4.71 119.81-6.88Q118.81-9.04 118.81-11.52ZM124.88-11.52L124.88-11.52Q124.88-10.14 125.44-8.90Q126.00-7.66 127.06-6.71Q128.13-5.76 129.66-5.21Q131.19-4.65 133.14-4.65L133.14-4.65Q135.10-4.65 136.63-5.21Q138.16-5.76 139.23-6.71Q140.29-7.66 140.85-8.90Q141.41-10.14 141.41-11.52L141.41-11.52Q141.41-12.91 140.85-14.16Q140.29-15.41 139.23-16.36Q138.16-17.30 136.63-17.86Q135.10-18.42 133.14-18.42L133.14-18.42Q131.19-18.42 129.66-17.86Q128.13-17.30 127.06-16.36Q126.00-15.41 125.44-14.16Q124.88-12.91 124.88-11.52Z M156.37-26.19L156.37-26.19Q155.51-26.19 154.81-26.44Q154.12-26.68 153.63-27.10Q153.14-27.52 152.88-28.08Q152.62-28.63 152.62-29.26L152.62-29.26Q152.62-29.90 152.88-30.46Q153.14-31.02 153.63-31.43Q154.12-31.84 154.81-32.08Q155.51-32.32 156.37-32.32L156.37-32.32Q157.25-32.32 157.94-32.08Q158.63-31.84 159.12-31.43Q159.61-31.02 159.87-30.46Q160.14-29.90 160.14-29.26L160.14-29.26Q160.14-28.63 159.87-28.08Q159.61-27.52 159.12-27.10Q158.63-26.68 157.94-26.44Q157.25-26.19 156.37-26.19ZM153.48 0L153.48-23.05L159.26-23.05L159.26 0L153.48 0Z M165.27-11.46L165.27-11.46Q165.27-14.00 166.20-16.20Q167.13-18.40 168.92-20.01Q170.70-21.62 173.29-22.54Q175.88-23.46 179.20-23.46L179.20-23.46Q180.64-23.46 182.11-23.28Q183.57-23.11 184.93-22.78Q186.29-22.46 187.48-22.02Q188.67-21.58 189.55-21.05L189.55-21.05L186.88-16.70Q184.98-17.58 183.29-17.99Q181.60-18.40 179.86-18.40L179.86-18.40Q177.87-18.40 176.29-17.88Q174.71-17.36 173.60-16.44Q172.50-15.51 171.92-14.25Q171.35-12.99 171.35-11.50L171.35-11.50Q171.35-10.02 171.96-8.76Q172.58-7.50 173.70-6.59Q174.82-5.68 176.42-5.17Q178.01-4.65 179.96-4.65L179.96-4.65Q182.11-4.65 184.01-5.25Q185.92-5.86 187.56-6.88L187.56-6.88L190.23-2.52Q189.20-1.89 187.99-1.36Q186.78-0.82 185.40-0.43Q184.02-0.04 182.51 0.19Q181.00 0.41 179.38 0.41L179.38 0.41Q176.07 0.41 173.46-0.49Q170.84-1.39 169.02-2.98Q167.21-4.57 166.24-6.74Q165.27-8.91 165.27-11.46Z M195.37-11.60L195.37-11.60Q195.37-13.95 196.33-16.08Q197.29-18.22 199.08-19.86Q200.88-21.50 203.49-22.48Q206.09-23.46 209.41-23.46L209.41-23.46Q212.71-23.46 215.36-22.47Q218.01-21.48 219.85-19.77Q221.70-18.05 222.69-15.72Q223.67-13.40 223.67-10.74L223.67-10.74Q223.67-10.41 223.66-10.03Q223.65-9.65 223.61-9.34L223.61-9.34L201.82-9.34Q202.19-8.30 203.02-7.44Q203.85-6.58 205.10-5.96Q206.35-5.33 207.99-4.99Q209.63-4.65 211.62-4.65L211.62-4.65Q213.61-4.65 215.59-5.07Q217.56-5.49 219.36-6.13L219.36-6.13L221.31-1.72Q220.18-1.19 219.01-0.79Q217.85-0.39 216.59-0.13Q215.33 0.14 213.96 0.27Q212.58 0.41 211.05 0.41L211.05 0.41Q207.17 0.41 204.24-0.53Q201.31-1.46 199.34-3.09Q197.36-4.71 196.37-6.89Q195.37-9.08 195.37-11.60ZM201.82-13.85L217.54-13.85Q217.23-14.80 216.57-15.63Q215.92-16.46 214.94-17.08Q213.96-17.70 212.68-18.05Q211.39-18.40 209.84-18.40L209.84-18.40Q208.20-18.40 206.86-18.03Q205.51-17.66 204.49-17.03Q203.48-16.41 202.80-15.59Q202.13-14.77 201.82-13.85L201.82-13.85Z"/></g>
</svg>
</g><g opacity="1" transform="rotate(0 -5.2611 235.3818)">
<svg width="109.9999" height="110" x="-5.2611" y="235.3818" version="1.1" preserveAspectRatio="none" viewBox="0 0 109.9999 110">
  <defs><rect x="0" y="0" width="109.9999" height="110" rx="0px" ry="0px" id="id-tBXipXk0b1710337723456"></rect></defs><use class="companyName text-str" style="stroke-width:0;" xlink:href="#id-tBXipXk0b1710337723456"></use>
</svg>
</g><g opacity="1" transform="rotate(0 14.7389 255.3819)">
<svg width="69.9999" height="69.9999" x="14.7389" y="255.3819" version="1.1" preserveAspectRatio="none" viewBox="20 20 160 160">
  <g transform="matrix(1 0 0 1 0 0)" class="icon3"><g><path d="M180 20v160H20V20h160z"></path><path d="M44.2 102.9c18.4 10.3 17 33.7 35.5 38.1 4 1 8.1.7 11.9-.6-11.2-6.5-18.8-17.2-19.9-32.1-.4-5 0-9.3.9-13.3-8.2-.7-20.4-1.1-33-8.5-15.3-9-10.9-24.4-9.8-27.6-.8-2-1-4.3-.5-6.5l.2-.7c.6-2.3 1.7-4.5 3.2-6.2l4.6-4.9c2.3-2.6 5-4.9 7.9-6.7l.6-.3 10.9-5.1c2.9-1.2 7 1.4 6.2 4.8l-2.8 11c0 .2-.1.5-.2.7-1 3.3-2.6 6.5-4.5 9.3L51.8 60c-1.3 2-3 3.6-5.1 4.8l-.6.2c-2 1-4.3 1.4-6.5 1.2-5.1 16.2 34.6 15 34.6 15 1.5-.1 3-.1 4.6-.1 7.2-9.9 18.8-15.1 29-16.9 17.4-2.9 35 6 44.3 21.5 6 10.1 15.4 22.1 27.9 24.6V20H20v74.8c8.9 1 17.1 4.1 24.2 8.1z"></path><path d="M93.9 99c-2.5 4.3-3.6 9.5-2.8 15.3 1.1 8.3 6.4 13.7 12.6 17.3 3-4.4 4.7-10 3.8-16.4-1.3-9.1-7.2-13.7-13.6-16.2z"></path><path d="M157.2 127.1c-19.2-10.8-17.7-35.3-37.1-39.8-4-1-8.1-.8-12 .5 12 6.5 19.5 17.7 20.8 33.4.5 6.5-.8 12.2-3 17.2 9.3.9 32.2-1.2 40 12.1 5 8.4 3.1 15 .8 19-.4.6-1.2.3-1.1-.4 2.2-13.2-8.5-24.7-34.3-21.9-3.9.5-7.8.6-11.6.5-7.7 8.5-18.9 13.5-28.1 15.1-16.7 2.8-33.5-5.7-42.3-20.6C43 132 33.2 119.6 20 118.5V180h160v-44.8c-8.3-1.3-16.1-4.2-22.8-8.1z"></path></g></g>
</svg>
</g></svg></svg>